<mxfile host="app.diagrams.net" modified="2021-10-27T05:29:11.051Z" agent="5.0 (Windows NT 10.0; Win64; x64) AppleWebKit/537.36 (KHTML, like Gecko) Chrome/95.0.4638.54 Safari/537.36" etag="az24pSjIuC2XEvEMQhfO" version="15.0.6" type="github">
  <diagram id="09UOsUV_2z3bFzvdY6_t" name="Page-1">
    <mxGraphModel dx="1019" dy="535" grid="1" gridSize="10" guides="1" tooltips="1" connect="1" arrows="1" fold="1" page="1" pageScale="1" pageWidth="1100" pageHeight="850" math="0" shadow="0">
      <root>
        <mxCell id="0" />
        <mxCell id="1" parent="0" />
        <mxCell id="V71nBl2a6PKJC0r5Lfjh-2" value="QUERIES" style="swimlane;" parent="1" vertex="1">
          <mxGeometry x="20" y="20" width="430" height="160" as="geometry">
            <mxRectangle x="20" y="20" width="130" height="23" as="alternateBounds" />
          </mxGeometry>
        </mxCell>
        <mxCell id="V71nBl2a6PKJC0r5Lfjh-3" value="SPEECH &#xa;QUERY / &#xa;VOICE COMMAND" style="shape=mxgraph.flowchart.process;fillColor=#F89753;" parent="V71nBl2a6PKJC0r5Lfjh-2" vertex="1">
          <mxGeometry x="17.5" y="48.5" width="123" height="60" as="geometry" />
        </mxCell>
        <mxCell id="V71nBl2a6PKJC0r5Lfjh-9" value="TELEGRAM BOT&#xa;QUERY" style="shape=mxgraph.flowchart.process;fillColor=#38AAE1;" parent="V71nBl2a6PKJC0r5Lfjh-2" vertex="1">
          <mxGeometry x="304" y="48.5" width="100" height="60" as="geometry" />
        </mxCell>
        <mxCell id="V71nBl2a6PKJC0r5Lfjh-19" value="TEXT&#xa;QUERY" style="shape=mxgraph.flowchart.process;fillColor=#F89753;" parent="V71nBl2a6PKJC0r5Lfjh-2" vertex="1">
          <mxGeometry x="165" y="48.5" width="100" height="60" as="geometry" />
        </mxCell>
        <mxCell id="V71nBl2a6PKJC0r5Lfjh-26" value="about system" style="shape=mxgraph.flowchart.paper_tape;" parent="1" vertex="1">
          <mxGeometry x="530" y="90" width="100" height="65" as="geometry" />
        </mxCell>
        <mxCell id="V71nBl2a6PKJC0r5Lfjh-27" value="online task" style="shape=mxgraph.flowchart.paper_tape;" parent="1" vertex="1">
          <mxGeometry x="530" y="179.5" width="100" height="65" as="geometry" />
        </mxCell>
        <mxCell id="V71nBl2a6PKJC0r5Lfjh-28" value="offline task" style="shape=mxgraph.flowchart.paper_tape;" parent="1" vertex="1">
          <mxGeometry x="530" y="274.5" width="100" height="65" as="geometry" />
        </mxCell>
        <mxCell id="V71nBl2a6PKJC0r5Lfjh-10" style="edgeStyle=orthogonalEdgeStyle;orthogonalLoop=1;jettySize=auto;html=1;" parent="1" source="V71nBl2a6PKJC0r5Lfjh-13" target="V71nBl2a6PKJC0r5Lfjh-26" edge="1">
          <mxGeometry relative="1" as="geometry">
            <Array as="points">
              <mxPoint x="475" y="245" />
              <mxPoint x="475" y="123" />
            </Array>
            <mxPoint x="450" y="350" as="sourcePoint" />
          </mxGeometry>
        </mxCell>
        <mxCell id="V71nBl2a6PKJC0r5Lfjh-11" style="edgeStyle=orthogonalEdgeStyle;orthogonalLoop=1;jettySize=auto;html=1;" parent="1" source="V71nBl2a6PKJC0r5Lfjh-13" target="V71nBl2a6PKJC0r5Lfjh-27" edge="1">
          <mxGeometry relative="1" as="geometry" />
        </mxCell>
        <mxCell id="V71nBl2a6PKJC0r5Lfjh-12" style="edgeStyle=orthogonalEdgeStyle;orthogonalLoop=1;jettySize=auto;html=1;" parent="1" source="V71nBl2a6PKJC0r5Lfjh-13" target="V71nBl2a6PKJC0r5Lfjh-28" edge="1">
          <mxGeometry relative="1" as="geometry">
            <Array as="points">
              <mxPoint x="470" y="245" />
              <mxPoint x="470" y="307" />
            </Array>
          </mxGeometry>
        </mxCell>
        <mxCell id="V71nBl2a6PKJC0r5Lfjh-7" value="is Online" style="shape=mxgraph.flowchart.decision;" parent="1" vertex="1">
          <mxGeometry x="49" y="210" width="100" height="60" as="geometry" />
        </mxCell>
        <mxCell id="V71nBl2a6PKJC0r5Lfjh-4" value="YES" style="edgeStyle=orthogonalEdgeStyle;orthogonalLoop=1;jettySize=auto;html=1;" parent="1" source="V71nBl2a6PKJC0r5Lfjh-3" target="V71nBl2a6PKJC0r5Lfjh-7" edge="1">
          <mxGeometry relative="1" as="geometry">
            <mxPoint x="101.5" y="253" as="sourcePoint" />
          </mxGeometry>
        </mxCell>
        <mxCell id="V71nBl2a6PKJC0r5Lfjh-5" value="YES" style="edgeStyle=orthogonalEdgeStyle;orthogonalLoop=1;jettySize=auto;html=1;entryX=0.018;entryY=0.523;entryDx=0;entryDy=0;entryPerimeter=0;" parent="1" source="V71nBl2a6PKJC0r5Lfjh-7" target="V71nBl2a6PKJC0r5Lfjh-15" edge="1">
          <mxGeometry x="-0.4828" relative="1" as="geometry">
            <mxPoint x="201.5" y="278" as="targetPoint" />
            <Array as="points">
              <mxPoint x="165" y="240" />
              <mxPoint x="165" y="341" />
            </Array>
            <mxPoint as="offset" />
          </mxGeometry>
        </mxCell>
        <mxCell id="V71nBl2a6PKJC0r5Lfjh-6" value="" style="edgeStyle=orthogonalEdgeStyle;orthogonalLoop=1;jettySize=auto;html=1;" parent="1" source="V71nBl2a6PKJC0r5Lfjh-7" target="V71nBl2a6PKJC0r5Lfjh-17" edge="1">
          <mxGeometry relative="1" as="geometry" />
        </mxCell>
        <mxCell id="V71nBl2a6PKJC0r5Lfjh-14" value="" style="edgeStyle=orthogonalEdgeStyle;orthogonalLoop=1;jettySize=auto;html=1;" parent="1" source="V71nBl2a6PKJC0r5Lfjh-15" target="V71nBl2a6PKJC0r5Lfjh-13" edge="1">
          <mxGeometry relative="1" as="geometry">
            <mxPoint x="356" y="278" as="targetPoint" />
            <Array as="points">
              <mxPoint x="235" y="410" />
              <mxPoint x="369" y="410" />
            </Array>
          </mxGeometry>
        </mxCell>
        <mxCell id="V71nBl2a6PKJC0r5Lfjh-16" style="edgeStyle=orthogonalEdgeStyle;orthogonalLoop=1;jettySize=auto;html=1;" parent="1" source="V71nBl2a6PKJC0r5Lfjh-17" target="V71nBl2a6PKJC0r5Lfjh-13" edge="1">
          <mxGeometry relative="1" as="geometry">
            <mxPoint x="173.5" y="389" as="sourcePoint" />
            <mxPoint x="395.42857142857133" y="253" as="targetPoint" />
            <Array as="points">
              <mxPoint x="99" y="440" />
              <mxPoint x="390" y="440" />
            </Array>
          </mxGeometry>
        </mxCell>
        <mxCell id="V71nBl2a6PKJC0r5Lfjh-45" value="SPEECH RECOGNITION" style="swimlane;horizontal=0;" parent="1" vertex="1">
          <mxGeometry y="290" width="320" height="170" as="geometry">
            <mxRectangle y="290" width="30" height="160" as="alternateBounds" />
          </mxGeometry>
        </mxCell>
        <mxCell id="V71nBl2a6PKJC0r5Lfjh-15" value="gSTT&#xa;google speech &#xa;to text" style="shape=mxgraph.flowchart.predefined_process;" parent="V71nBl2a6PKJC0r5Lfjh-45" vertex="1">
          <mxGeometry x="185" y="25" width="125" height="60" as="geometry" />
        </mxCell>
        <mxCell id="V71nBl2a6PKJC0r5Lfjh-17" value="VOSKÂ &#xa;speech to text" style="shape=mxgraph.flowchart.predefined_process;" parent="V71nBl2a6PKJC0r5Lfjh-45" vertex="1">
          <mxGeometry x="40" y="75" width="118" height="60" as="geometry" />
        </mxCell>
        <mxCell id="V71nBl2a6PKJC0r5Lfjh-13" value="IDENTIFY&#xa;QUERY&#xa;MODULE" style="shape=mxgraph.flowchart.predefined_process;" parent="1" vertex="1">
          <mxGeometry x="324" y="214.5" width="100" height="60" as="geometry" />
        </mxCell>
        <mxCell id="V71nBl2a6PKJC0r5Lfjh-8" style="edgeStyle=orthogonalEdgeStyle;orthogonalLoop=1;jettySize=auto;html=1;" parent="1" source="V71nBl2a6PKJC0r5Lfjh-9" target="V71nBl2a6PKJC0r5Lfjh-13" edge="1">
          <mxGeometry relative="1" as="geometry">
            <mxPoint x="378.5" y="193" as="targetPoint" />
          </mxGeometry>
        </mxCell>
        <mxCell id="V71nBl2a6PKJC0r5Lfjh-18" style="edgeStyle=orthogonalEdgeStyle;orthogonalLoop=1;jettySize=auto;html=1;" parent="1" source="V71nBl2a6PKJC0r5Lfjh-19" target="V71nBl2a6PKJC0r5Lfjh-13" edge="1">
          <mxGeometry relative="1" as="geometry">
            <Array as="points">
              <mxPoint x="236" y="240" />
            </Array>
          </mxGeometry>
        </mxCell>
        <mxCell id="cHo5Hgkxulb_34sSK-fK-1" value="Form speech to Text" style="text;html=1;fillColor=#f8cecc;align=center;verticalAlign=middle;whiteSpace=wrap;rounded=0;glass=0;labelPadding=10;strokeOpacity=100;labelBorderColor=none;spacing=8;" vertex="1" parent="1">
          <mxGeometry x="338" y="299.5" width="86" height="40" as="geometry" />
        </mxCell>
      </root>
    </mxGraphModel>
  </diagram>
</mxfile>
